Coordinates
version=1
nRows=10
nColumns=40
inDegrees=yes

Units are S.I. units (second, meters, Newtons, ...)
Angles are in degrees.

endheader
time	pelvis_tilt	pelvis_list	pelvis_rotation	pelvis_tx	pelvis_ty	pelvis_tz	hip_flexion_r	hip_adduction_r	hip_rotation_r	knee_angle_r	knee_angle_r_beta	ankle_angle_r	subtalar_angle_r	mtp_angle_r	hip_flexion_l	hip_adduction_l	hip_rotation_l	knee_angle_l	knee_angle_l_beta	ankle_angle_l	subtalar_angle_l	mtp_angle_l	lumbar_extension	lumbar_bending	lumbar_rotation	arm_flex_r	arm_add_r	arm_rot_r	elbow_flex_r	pro_sup_r	wrist_flex_r	wrist_dev_r	arm_flex_l	arm_add_l	arm_rot_l	elbow_flex_l	pro_sup_l	wrist_flex_l	wrist_dev_l
      1.14000000	     -3.00362492	      6.90361768	     -0.31057743	      0.48211908	      0.92171294	      1.05565030	     -8.36491862	    -21.12887664	    -17.93170890	    -40.45119452	     -0.70600653	    -17.12952167	      4.63537092	     -7.76330812	     28.68846548	     -4.77968232	     12.00529124	    -27.81625886	     -0.48548530	     -2.46172273	     14.65808100	      0.49081914	      5.02575413	    -11.17623428	      5.24978522	      1.84907409	    -14.39038255	    -18.54671130	     63.55683687	     89.95437384	      0.00000000	      0.00000000	    -22.52025914	     15.82413775	      2.77728145	      2.98030444	     89.95437384	      0.00000000	      0.00000000
      1.15000000	     -3.46196126	      7.47819718	     -0.19026512	      0.49511148	      0.92229329	      1.05158112	     -5.54694309	    -22.07891166	    -16.39560465	    -44.40669455	     -0.77504303	    -17.28155672	      1.05122095	     -7.48673512	     28.34971934	     -5.98240605	     11.29742989	    -27.88723860	     -0.48672413	     -1.69822380	     15.80357784	      0.93036630	      5.51193568	    -11.72493931	      5.05189794	      1.17313004	    -13.78199785	    -18.68210475	     62.77488892	     89.95437384	      0.00000000	      0.00000000	    -21.80808029	     15.72091072	      4.12737876	      3.54606514	     89.95437384	      0.00000000	      0.00000000
      1.16000000	     -3.56774514	      8.00742071	     -0.08876392	      0.50796816	      0.92380624	      1.04787629	     -3.16912241	    -22.84056870	    -15.21451129	    -47.94547471	     -0.83680640	    -16.87880201	     -2.36356602	     -7.12210294	     27.42849593	     -7.04173347	     10.92464219	    -27.66117581	     -0.48277859	     -0.60708703	     16.16613118	      1.39129005	      5.54361260	    -12.24752335	      4.76634339	      0.62044306	    -13.23359145	    -18.55285633	     61.71702443	     89.95437384	      0.00000000	      0.00000000	    -20.93880664	     15.59099519	      5.63857004	      4.16696939	     89.95437384	      0.00000000	      0.00000000
      1.17000000	     -3.29361366	      8.36732564	     -0.00774376	      0.52072353	      0.92627379	      1.04444154	     -1.33546122	    -23.30445483	    -14.23468267	    -50.98369728	     -0.88983338	    -15.71793521	     -4.72027602	     -6.92046874	     25.94774588	     -7.85803805	     10.68172437	    -27.21548195	     -0.47499977	      0.61541067	     15.99899551	      1.39459921	      5.10965211	    -12.58222480	      4.42574549	      0.19613669	    -12.77201543	    -18.25128156	     60.34612757	     89.95437384	      0.00000000	      0.00000000	    -19.90430934	     15.50044446	      6.15095312	      4.86347729	     89.95437384	      0.00000000	      0.00000000
      1.18000000	     -3.27903032	      8.88173355	     -0.20080494	      0.53307301	      0.92856470	      1.04133125	      1.16058561	    -23.93483883	    -13.01365054	    -53.98007834	     -0.94213010	    -14.94198893	     -8.04059388	     -6.33703431	     24.67503390	     -8.70649692	     10.73964066	    -26.44369498	     -0.46152954	      1.10512892	     16.25090319	      1.79808346	      5.00788751	    -13.04606754	      4.33413697	     -0.13754380	    -12.28069330	    -17.90492326	     58.68494710	     89.95437384	      0.00000000	      0.00000000	    -18.88765984	     15.32861751	      7.24880171	      5.66623190	     89.95437384	      0.00000000	      0.00000000
      1.19000000	     -3.18084688	      9.15746866	     -0.45351915	      0.54514137	      0.93114754	      1.03860185	      3.58693943	    -24.15152244	    -11.71660563	    -56.52426305	     -0.98653450	    -14.27488387	    -10.80912281	     -5.21230809	     23.37933486	     -9.21339954	     10.85210616	    -25.80378043	     -0.45036093	      1.65729890	     16.21654497	      2.45738882	      4.78712919	    -13.24490475	      4.13696217	     -0.24501570	    -11.92057897	    -17.21684677	     56.67838536	     89.95437384	      0.00000000	      0.00000000	    -17.75181479	     15.06647548	      8.77184217	      6.48363464	     89.95437384	      0.00000000	      0.00000000
      1.20000000	     -3.08194989	      9.24429545	     -0.77029442	      0.55688331	      0.93375237	      1.03626369	      6.12544754	    -24.00549714	    -10.29520357	    -59.08671497	     -1.03125772	    -10.85609333	    -12.28462728	      7.21590941	     22.09782264	     -9.43737065	     11.09819640	    -25.24448918	     -0.44059945	      3.39269472	     15.54554400	      7.81383572	      4.49405146	    -13.26379585	      3.93560322	     -0.23613399	    -11.49491862	    -16.60291100	     54.46049557	     89.95437384	      0.00000000	      0.00000000	    -16.48514839	     14.75195902	     10.89300248	      7.16947436	     89.95437384	      0.00000000	      0.00000000
      1.21000000	     -2.71441209	      9.06945083	     -0.89711544	      0.56919901	      0.93695464	      1.03378880	      7.84311312	    -23.50401514	     -9.43364732	    -60.69058179	     -1.05925048	     -9.67430800	    -13.61733174	      7.00230308	     20.37792968	     -9.46110042	     11.20515070	    -24.45276329	     -0.42678123	      3.91571643	     15.08521264	      7.57002352	      3.96450561	    -12.97641225	      3.65328172	     -0.28659249	    -11.08280197	    -16.23329607	     52.05418601	     89.95437384	      0.00000000	      0.00000000	    -15.23150635	     14.55348445	     10.97542644	      8.06963909	     89.95437384	      0.00000000	      0.00000000
      1.22000000	     -2.56037217	      9.03496217	     -1.37099669	      0.58114276	      0.93967600	      1.03193327	     10.11205558	    -23.02261613	     -8.15617152	    -62.18227247	     -1.08528539	     -8.79956653	    -15.29070953	      7.36956910	     18.88164088	     -9.44457910	     11.98054795	    -23.47549241	     -0.40972464	      4.06854312	     14.48633605	      7.29673881	      3.70239719	    -12.80512410	      3.64992431	     -0.34468810	    -10.84511651	    -15.41642882	     49.67611181	     89.95437384	      0.00000000	      0.00000000	    -13.99503488	     14.27037217	     12.14731947	      9.07302234	     89.95437384	      0.00000000	      0.00000000
      1.23000000	     -2.42372652	      8.66754003	     -1.50153931	      0.59279852	      0.94241358	      1.02977456	     12.04444336	    -22.15931701	     -7.44437864	    -63.18735139	     -1.10282733	     -7.66466840	    -16.07377635	      7.32179277	     17.40596055	     -9.25324882	     12.07394551	    -22.59295946	     -0.39432153	      4.51344190	     14.02723596	      7.05944362	      3.33229077	    -12.30051571	      3.37644083	     -0.31669622	    -10.55289940	    -14.93224855	     47.05387063	     89.95437384	      0.00000000	      0.00000000	    -12.59517337	     14.05432769	     12.21382791	      9.89317142	     89.95437384	      0.00000000	      0.00000000
